<svg xmlns="http://www.w3.org/2000/svg" width="260" height="40" viewBox="0 0 260 40">
  <g id="Group_2101" data-name="Group 2101" transform="translate(449 -3355)">
    <path id="Path_301" data-name="Path 301" d="M14.445-12.5q.04,0,.04.12t-.04.12a1.475,1.475,0,0,0-1.259.629,2.8,2.8,0,0,0-.46,1.687V.274q0,.06-.09.08a.135.135,0,0,1-.13-.02L3.137-10.325v7.764a2.845,2.845,0,0,0,.44,1.677A1.412,1.412,0,0,0,4.8-.265q.04,0,.04.12t-.04.12q-.559,0-.859-.02L2.857-.066l-1.239.02q-.34.02-.979.02-.06,0-.06-.12t.06-.12A1.7,1.7,0,0,0,2.028-.884a2.559,2.559,0,0,0,.509-1.677V-11a5.2,5.2,0,0,0-1.129-.988,1.922,1.922,0,0,0-.969-.269q-.04,0-.04-.12t.04-.12l.839.02q.26.02.759.02l1.518-.02q.28-.02.679-.02a.326.326,0,0,1,.24.08,4.18,4.18,0,0,1,.28.339q.34.459.479.619L12.147-3.5V-9.946a2.884,2.884,0,0,0-.44-1.7,1.412,1.412,0,0,0-1.219-.619q-.04,0-.04-.12t.04-.12l.859.02q.639.04,1.079.04.4,0,1.119-.04ZM26.592-3.2q0-.04.08-.04a.21.21,0,0,1,.11.03q.05.03.05.05a22.432,22.432,0,0,0-.2,2.834.351.351,0,0,1-.06.23.312.312,0,0,1-.24.07H17.5q-.06,0-.06-.12t.06-.12a3.111,3.111,0,0,0,.929-.1.6.6,0,0,0,.39-.389,2.92,2.92,0,0,0,.1-.888v-9.241a2.817,2.817,0,0,0-.1-.878.629.629,0,0,0-.4-.389,2.856,2.856,0,0,0-.919-.11q-.06,0-.06-.12t.06-.12h8.471q.2,0,.2.18l.04,2.655q0,.04-.11.06t-.13-.04a3.049,3.049,0,0,0-1.079-1.716,3.291,3.291,0,0,0-2-.559h-.6a1.262,1.262,0,0,0-.879.259,1.039,1.039,0,0,0-.28.8v4.072H22.8a3.289,3.289,0,0,0,1.778-.4,1.259,1.259,0,0,0,.619-1.118q0-.06.11-.06t.11.06l-.02,1.8.02.958q.04.679.04,1.078,0,.04-.12.04t-.12-.04a1.518,1.518,0,0,0-.629-1.287,2.987,2.987,0,0,0-1.808-.469H21.138v4.511a1.38,1.38,0,0,0,.22.858.835.835,0,0,0,.7.279h.659a4.368,4.368,0,0,0,2.5-.639A3.675,3.675,0,0,0,26.592-3.2Zm21.437-9.3q.04,0,.04.12t-.04.12a1.975,1.975,0,0,0-1.389.629,4.7,4.7,0,0,0-1.069,1.726l-3.7,9.86q-.02.08-.22.08t-.22-.08L38.878-5.455,36.861-.046q-.02.08-.22.08t-.22-.08l-5.095-10.8a7.286,7.286,0,0,0-.489-.918,1.094,1.094,0,0,0-.42-.389,1.426,1.426,0,0,0-.609-.11q-.06,0-.06-.12t.06-.12a2.961,2.961,0,0,1,.42.02q.4.04,1.039.04,1.339,0,2.258-.04.26-.02.639-.02.06,0,.06.12t-.06.12a1.8,1.8,0,0,0-.709.1.363.363,0,0,0-.21.359,4.068,4.068,0,0,0,.46,1.317L37.3-2.86l1.259-3.293-2.218-4.69a4.912,4.912,0,0,0-.639-1.068.849.849,0,0,0-.639-.349q-.06,0-.06-.12t.06-.12a4.33,4.33,0,0,1,.469.03,7.463,7.463,0,0,0,.769.03q1.139,0,1.9-.04.2-.02.519-.02.06,0,.06.12t-.06.12a.905.905,0,0,0-.41.07.258.258,0,0,0-.13.249,4.711,4.711,0,0,0,.539,1.457L39.6-8.628l.5-1.337a5.321,5.321,0,0,0,.44-1.716q0-.579-.5-.579-.06,0-.06-.12t.06-.12a2.256,2.256,0,0,1,.35.03,8.579,8.579,0,0,0,.949.03q.34,0,.819-.04l.739-.02q.04,0,.04.12t-.04.12q-1.339,0-2.218,2.355L39.937-7.93l2.4,5.05,2.577-6.886a3.33,3.33,0,0,0,.24-1.158,1.448,1.448,0,0,0-.31-.978,1.039,1.039,0,0,0-.829-.359q-.06,0-.06-.12t.06-.12l.919.02q.719.04,1.319.04.4,0,.919-.04ZM63.772-7.032a4.6,4.6,0,0,1,2.667,1.118,2.98,2.98,0,0,1,.989,2.275,3.149,3.149,0,0,1-.6,1.876A4.1,4.1,0,0,1,65.17-.435a5.556,5.556,0,0,1-2.357.489q-.559,0-1.279-.06-.28-.02-.689-.04t-.909-.02l-1.458.02q-.4.02-1.079.02-.06,0-.06-.12t.06-.12a2.691,2.691,0,0,0,.879-.11.726.726,0,0,0,.43-.4,2.221,2.221,0,0,0,.13-.868v-9.241a1.575,1.575,0,0,0-.28-1.108,1.705,1.705,0,0,0-1.139-.269q-.04,0-.04-.12t.04-.12l1.059.02q.919.04,1.458.04.559,0,1.159-.06.2-.02.6-.04t.7-.02a5.1,5.1,0,0,1,2.817.659,2.153,2.153,0,0,1,1,1.916,2.694,2.694,0,0,1-.629,1.736A4.1,4.1,0,0,1,63.772-7.032Zm-1.678-5.09a.987.987,0,0,0-.8.269,1.666,1.666,0,0,0-.22,1.008v3.792l.8.02a1.85,1.85,0,0,0,1.6-.778,3.338,3.338,0,0,0,.559-2,2.605,2.605,0,0,0-.5-1.726A1.781,1.781,0,0,0,62.093-12.121Zm.38,11.676q2.617,0,2.617-2.714a3.717,3.717,0,0,0-.739-2.435,2.73,2.73,0,0,0-2.238-.9q-.579,0-1.039.04v4.81a1.322,1.322,0,0,0,.26.928A1.657,1.657,0,0,0,62.473-.445Zm22.136.18q.04,0,.04.12t-.04.12H81.053q-.44,0-1.638-1.587a50.5,50.5,0,0,1-2.9-4.441,3.977,3.977,0,0,1-.46.02q-.779,0-1.1-.02v4.411a2.906,2.906,0,0,0,.1.9.6.6,0,0,0,.39.379,3.111,3.111,0,0,0,.929.1q.04,0,.04.12t-.04.12q-.659,0-1.039-.02l-1.518-.02-1.458.02q-.4.02-1.079.02-.06,0-.06-.12t.06-.12a3.111,3.111,0,0,0,.929-.1.628.628,0,0,0,.4-.389,2.67,2.67,0,0,0,.11-.888v-9.241a2.817,2.817,0,0,0-.1-.878.629.629,0,0,0-.4-.389,2.856,2.856,0,0,0-.919-.11q-.04,0-.04-.12t.04-.12l1.059.02q.919.04,1.458.04.679,0,1.418-.06.26-.02.649-.04t.869-.02a5.037,5.037,0,0,1,2.817.669,2.123,2.123,0,0,1,1,1.866,3.471,3.471,0,0,1-.6,1.986,4.424,4.424,0,0,1-1.6,1.427q1.6,2.4,2.677,3.752A10.942,10.942,0,0,0,82.971-.884,2.772,2.772,0,0,0,84.609-.265ZM74.96-6.612a7.185,7.185,0,0,0,1.159.08,1.994,1.994,0,0,0,1.668-.649A3.393,3.393,0,0,0,78.3-9.267a3.85,3.85,0,0,0-.479-2.255,1.64,1.64,0,0,0-1.379-.619,1.717,1.717,0,0,0-1.139.3,1.272,1.272,0,0,0-.34,1ZM100.732-.265q.1,0,.1.12t-.1.12q-.4,0-1.239-.04-.879-.04-1.259-.04-.5,0-1.219.04-.679.04-1.079.04-.08,0-.08-.12t.08-.12a1.863,1.863,0,0,0,.749-.11.4.4,0,0,0,.23-.389,3.086,3.086,0,0,0-.4-1.138L95.158-4.6H90.243L89.464-2.86a2.648,2.648,0,0,0-.26,1.078,1.339,1.339,0,0,0,.509,1.118,2.16,2.16,0,0,0,1.369.4q.1,0,.1.12t-.1.12q-.36,0-1.039-.04-.759-.04-1.319-.04-.539,0-1.3.04-.679.04-1.1.04-.08,0-.08-.12t.08-.12a1.785,1.785,0,0,0,.939-.23,2.546,2.546,0,0,0,.759-.818,13.9,13.9,0,0,0,.9-1.746l4.335-9.52q.04-.06.18-.06.16,0,.18.06l4.995,9.82A10.341,10.341,0,0,0,99.773-.8,1.285,1.285,0,0,0,100.732-.265ZM90.5-5.155h4.355l-2.3-4.551ZM117.154-12.5q.04,0,.04.12t-.04.12a1.475,1.475,0,0,0-1.259.629,2.8,2.8,0,0,0-.46,1.687V.274q0,.06-.09.08a.135.135,0,0,1-.13-.02l-9.37-10.658v7.764a2.845,2.845,0,0,0,.44,1.677,1.412,1.412,0,0,0,1.219.619q.04,0,.04.12t-.04.12q-.559,0-.859-.02l-1.079-.02-1.239.02q-.34.02-.979.02-.06,0-.06-.12t.06-.12a1.7,1.7,0,0,0,1.389-.619,2.559,2.559,0,0,0,.509-1.677V-11a5.2,5.2,0,0,0-1.129-.988,1.922,1.922,0,0,0-.969-.269q-.04,0-.04-.12t.04-.12l.839.02q.26.02.759.02l1.518-.02q.28-.02.679-.02a.326.326,0,0,1,.24.08,4.182,4.182,0,0,1,.28.339q.34.459.479.619L114.857-3.5V-9.946a2.884,2.884,0,0,0-.44-1.7,1.412,1.412,0,0,0-1.219-.619q-.04,0-.04-.12t.04-.12l.859.02q.639.04,1.079.04.4,0,1.119-.04ZM125.9.054q-.639,0-1.518-.06-.32-.02-.789-.04t-1.049-.02l-1.478.02q-.4.02-1.079.02-.04,0-.04-.12t.04-.12a3.218,3.218,0,0,0,.939-.1.629.629,0,0,0,.41-.389,2.67,2.67,0,0,0,.11-.888v-9.241a2.577,2.577,0,0,0-.11-.878.661.661,0,0,0-.4-.389,2.759,2.759,0,0,0-.909-.11q-.06,0-.06-.12t.06-.12l1.059.02q.919.04,1.458.04.819,0,1.678-.06,1.039-.04,1.4-.04a7.8,7.8,0,0,1,3.586.8,5.985,5.985,0,0,1,2.427,2.176,5.725,5.725,0,0,1,.859,3.094,6.541,6.541,0,0,1-.889,3.423,6.112,6.112,0,0,1-2.4,2.3A6.889,6.889,0,0,1,125.9.054Zm-.2-.459a3.993,3.993,0,0,0,2.258-.649,4.239,4.239,0,0,0,1.528-1.926,7.7,7.7,0,0,0,.549-3.054,8.735,8.735,0,0,0-.519-3.084,5.093,5.093,0,0,0-1.478-2.186,3.364,3.364,0,0,0-2.218-.8,4.1,4.1,0,0,0-1.7.24,1.039,1.039,0,0,0-.46,1.018v8.982a1.352,1.352,0,0,0,.42,1.128A2.79,2.79,0,0,0,125.7-.405Zm30.887-12.1q.04,0,.04.12t-.04.12a1.475,1.475,0,0,0-1.259.629,2.8,2.8,0,0,0-.46,1.687V.274q0,.06-.09.08a.135.135,0,0,1-.13-.02l-9.37-10.658v7.764a2.845,2.845,0,0,0,.44,1.677,1.412,1.412,0,0,0,1.219.619q.04,0,.04.12t-.04.12q-.559,0-.859-.02L145-.066l-1.239.02q-.34.02-.979.02-.06,0-.06-.12t.06-.12a1.7,1.7,0,0,0,1.389-.619,2.559,2.559,0,0,0,.509-1.677V-11a5.2,5.2,0,0,0-1.129-.988,1.922,1.922,0,0,0-.969-.269q-.04,0-.04-.12t.04-.12l.839.02q.26.02.759.02l1.518-.02q.28-.02.679-.02a.326.326,0,0,1,.24.08,4.183,4.183,0,0,1,.28.339q.34.459.479.619L154.294-3.5V-9.946a2.884,2.884,0,0,0-.44-1.7,1.412,1.412,0,0,0-1.219-.619q-.04,0-.04-.12t.04-.12l.859.02q.639.04,1.079.04.4,0,1.119-.04ZM173.154-.265q.1,0,.1.12t-.1.12q-.4,0-1.239-.04-.879-.04-1.259-.04-.5,0-1.219.04-.679.04-1.079.04-.08,0-.08-.12t.08-.12a1.863,1.863,0,0,0,.749-.11.4.4,0,0,0,.23-.389,3.086,3.086,0,0,0-.4-1.138L167.58-4.6h-4.915l-.779,1.736a2.648,2.648,0,0,0-.26,1.078,1.339,1.339,0,0,0,.509,1.118,2.16,2.16,0,0,0,1.369.4q.1,0,.1.12t-.1.12q-.36,0-1.039-.04-.759-.04-1.319-.04-.539,0-1.3.04-.679.04-1.1.04-.08,0-.08-.12t.08-.12a1.785,1.785,0,0,0,.939-.23,2.545,2.545,0,0,0,.759-.818,13.9,13.9,0,0,0,.9-1.746l4.335-9.52q.04-.06.18-.06.16,0,.18.06l4.995,9.82A10.341,10.341,0,0,0,172.195-.8,1.285,1.285,0,0,0,173.154-.265Zm-10.229-4.89h4.355l-2.3-4.551Zm28.849,4.89q.04,0,.04.12t-.04.12q-.679,0-1.079-.02l-1.478-.02-1.5.02q-.38.02-1.039.02-.06,0-.06-.12t.06-.12a2.24,2.24,0,0,0,1.139-.2.95.95,0,0,0,.3-.838l-.02-.339-.42-8.163-4.116,9.64a.161.161,0,0,1-.16.08.161.161,0,0,1-.16-.08l-5.055-9.6-.16,7.205a2.7,2.7,0,0,0,.43,1.687,1.485,1.485,0,0,0,1.269.609q.06,0,.06.12t-.06.12q-.539,0-.839-.02l-1.1-.02-1.259.02q-.32.02-.859.02-.06,0-.06-.12t.06-.12a1.556,1.556,0,0,0,1.3-.619,2.758,2.758,0,0,0,.5-1.677l.18-8.263-.02-.02a3.453,3.453,0,0,0-.829-1.078,1.551,1.551,0,0,0-.989-.339q-.06,0-.06-.12t.06-.12l.939.02q.28.02.719.02l1.059-.02a4.311,4.311,0,0,1,.46-.02.477.477,0,0,1,.4.18,8.744,8.744,0,0,1,.519.858L184.262-3.3l3.8-8.7a1.058,1.058,0,0,1,.25-.389.524.524,0,0,1,.35-.11q.18,0,.41.02t.529.02l1.179-.02q.28-.02.8-.02.06,0,.06.12t-.06.12a2,2,0,0,0-1.359.379,1.41,1.41,0,0,0-.38,1.178l.479,9.061a3.234,3.234,0,0,0,.15.9.629.629,0,0,0,.4.379A3.019,3.019,0,0,0,191.774-.265ZM204.16-3.2q0-.04.08-.04a.21.21,0,0,1,.11.03q.05.03.05.05a22.431,22.431,0,0,0-.2,2.834.351.351,0,0,1-.06.23.312.312,0,0,1-.24.07h-8.83q-.06,0-.06-.12t.06-.12a3.111,3.111,0,0,0,.929-.1.6.6,0,0,0,.39-.389,2.92,2.92,0,0,0,.1-.888v-9.241a2.818,2.818,0,0,0-.1-.878.629.629,0,0,0-.4-.389,2.856,2.856,0,0,0-.919-.11q-.06,0-.06-.12t.06-.12h8.471q.2,0,.2.18l.04,2.655q0,.04-.11.06t-.13-.04a3.049,3.049,0,0,0-1.079-1.716,3.291,3.291,0,0,0-2-.559h-.6a1.261,1.261,0,0,0-.879.259,1.039,1.039,0,0,0-.28.8v4.072h1.658a3.289,3.289,0,0,0,1.778-.4,1.259,1.259,0,0,0,.619-1.118q0-.06.11-.06t.11.06l-.02,1.8.02.958q.04.679.04,1.078,0,.04-.12.04t-.12-.04a1.518,1.518,0,0,0-.629-1.287,2.987,2.987,0,0,0-1.808-.469h-1.638v4.511a1.38,1.38,0,0,0,.22.858.835.835,0,0,0,.7.279h.659a4.368,4.368,0,0,0,2.5-.639A3.675,3.675,0,0,0,204.16-3.2Z" transform="translate(-393.4 3381.64)" fill="#222"/>
    <circle id="Ellipse_101" data-name="Ellipse 101" cx="20" cy="20" r="20" transform="translate(-449 3355)" fill="#cecece"/>
  </g>
</svg>
