<svg xmlns="http://www.w3.org/2000/svg" width="249" height="109" viewBox="0 0 249 109">
  <g id="blog" transform="translate(-799 -1936.5)" opacity="0.08">
    <text id="blog-2" data-name="blog" transform="translate(799 2019.5)" fill="#222" font-size="90" font-family="CormorantGaramond-Bold, Cormorant Garamond" font-weight="700" letter-spacing="0.04em"><tspan x="0" y="0">BLOG</tspan></text>
    <path id="blog_-_Outline" data-name="blog - Outline" d="M145.89-57.74a28.618,28.618,0,0,1,15.293,4.08,27.76,27.76,0,0,1,10.124,10.767A30.108,30.108,0,0,1,174.83-28.71a28.207,28.207,0,0,1-4.4,15.3A31.673,31.673,0,0,1,158.685-2.441,32.863,32.863,0,0,1,142.74,1.58a29,29,0,0,1-15.152-3.986,27.43,27.43,0,0,1-10.265-10.815A31.372,31.372,0,0,1,113.71-28.08a30.976,30.976,0,0,1,1.19-8.748,25.106,25.106,0,0,1,3.581-7.426A29.953,29.953,0,0,1,130.7-54.365,36.568,36.568,0,0,1,145.89-57.74ZM142.74.58a32.889,32.889,0,0,0,8.034-.975,31.644,31.644,0,0,0,7.431-2.924,30.684,30.684,0,0,0,11.382-10.628A27.373,27.373,0,0,0,172.769-21a27.919,27.919,0,0,0,1.061-7.714,29.118,29.118,0,0,0-3.407-13.717,26.774,26.774,0,0,0-9.766-10.383,25.551,25.551,0,0,0-6.863-2.946,30.737,30.737,0,0,0-7.9-.984,35.575,35.575,0,0,0-14.778,3.285,29.222,29.222,0,0,0-6.559,4.081,29.5,29.5,0,0,0-5.254,5.7,24.107,24.107,0,0,0-3.439,7.131,29.979,29.979,0,0,0-1.15,8.465,30.382,30.382,0,0,0,3.5,14.391,26.768,26.768,0,0,0,4.218,5.9A26.882,26.882,0,0,0,128.1-3.264a26.322,26.322,0,0,0,6.856,2.881A30.649,30.649,0,0,0,142.74.58Zm79.11-58.32a56.65,56.65,0,0,1,8.717.681,31.854,31.854,0,0,1,7.034,1.783c.952.347,1.238.569,1.373.794a4.037,4.037,0,0,1,.295,1.7L240.44-40.23c0,.207-.088.7-.906.852a1.527,1.527,0,0,1-.271.026.859.859,0,0,1-.878-.63,28.607,28.607,0,0,0-3.706-6.34,23.864,23.864,0,0,0-6.7-5.993,17.889,17.889,0,0,0-9.547-2.536,18.3,18.3,0,0,0-10.254,3.067,20.919,20.919,0,0,0-7.338,8.8,31.327,31.327,0,0,0-2.7,13.378,34.2,34.2,0,0,0,3.146,14.9,24.443,24.443,0,0,0,8.687,10.147A22.529,22.529,0,0,0,222.48-.95a15.166,15.166,0,0,0,5.481-.773,4.68,4.68,0,0,0,2.6-2.867,19.979,19.979,0,0,0,.867-6.75,26.373,26.373,0,0,0-.52-6.385,3.033,3.033,0,0,0-1.984-2.145,20.328,20.328,0,0,0-6-.6c-.5,0-1.04-.32-1.04-1.22a1.442,1.442,0,0,1,.206-.752.856.856,0,0,1,.744-.468h.029c5.066.3,9.235.449,12.391.449,3.037,0,6.237-.091,9.513-.269h.027c.248,0,.833.107.9,1.094a1.147,1.147,0,0,1-.249.9.863.863,0,0,1-.655.268h-.028c-.117-.007-.232-.01-.34-.01a2.2,2.2,0,0,0-1.573.449,4.024,4.024,0,0,0-.71,2.435c-.118,1.359-.178,3.767-.178,7.157a35.94,35.94,0,0,0,.307,5.669A14.607,14.607,0,0,1,242.6-2.52a1.445,1.445,0,0,1-.326,1.074,2.363,2.363,0,0,1-1.026.487l-.031.008A100.413,100.413,0,0,1,220.23,1.58a46.349,46.349,0,0,1-9.69-.967A34.583,34.583,0,0,1,202.184-2.3a28.833,28.833,0,0,1-11.81-10.579A27.851,27.851,0,0,1,186.25-27.72a28.934,28.934,0,0,1,1.157-8.242A26.791,26.791,0,0,1,190.88-43.3a29.188,29.188,0,0,1,5.505-6.1,33.159,33.159,0,0,1,7.253-4.558A42.78,42.78,0,0,1,221.85-57.74Zm16.269,3.79a3.969,3.969,0,0,0-.87-.39l-.02-.008a30.852,30.852,0,0,0-6.816-1.723,55.649,55.649,0,0,0-8.563-.669,41.79,41.79,0,0,0-17.789,3.688,32.158,32.158,0,0,0-7.035,4.419,28.187,28.187,0,0,0-5.317,5.892,25.791,25.791,0,0,0-3.344,7.063,27.934,27.934,0,0,0-1.116,7.958,28.089,28.089,0,0,0,.994,7.516,26.466,26.466,0,0,0,2.981,6.8,26.215,26.215,0,0,0,4.835,5.774,30.434,30.434,0,0,0,6.575,4.438A33.584,33.584,0,0,0,210.75-.365a45.348,45.348,0,0,0,9.48.945,99.394,99.394,0,0,0,20.758-2.505,2.129,2.129,0,0,0,.568-.221,1.086,1.086,0,0,0,.044-.374,15.56,15.56,0,0,0-.307-2.069,36.2,36.2,0,0,1-.323-5.851c0-3.418.061-5.855.182-7.243a4.946,4.946,0,0,1,1-3.055,3.119,3.119,0,0,1,2.28-.742c.09,0,.182,0,.277.006,0-.024,0-.054,0-.089a1.14,1.14,0,0,0-.021-.159c-3.244.175-6.414.263-9.425.263-3.148,0-7.292-.149-12.32-.443a.445.445,0,0,0-.05.213.687.687,0,0,0,.026.22h.014a20.8,20.8,0,0,1,6.334.659,4.023,4.023,0,0,1,2.606,2.805,26.734,26.734,0,0,1,.56,6.665A20.89,20.89,0,0,1,231.5-4.23,5.7,5.7,0,0,1,228.339-.8,16.093,16.093,0,0,1,222.48.05a23.512,23.512,0,0,1-13.053-3.771,25.428,25.428,0,0,1-9.043-10.553A35.184,35.184,0,0,1,197.14-29.61a32.313,32.313,0,0,1,2.792-13.8,21.9,21.9,0,0,1,7.692-9.2A19.283,19.283,0,0,1,218.43-55.85,18.873,18.873,0,0,1,228.5-53.166a24.857,24.857,0,0,1,6.979,6.247,29.6,29.6,0,0,1,3.831,6.563l.043-.007.069-.015L238.271-52.7A7.05,7.05,0,0,0,238.119-53.95ZM26.19-57.02c5.534,0,9.9,1.027,12.965,3.053A10.224,10.224,0,0,1,43.88-44.91a12.7,12.7,0,0,1-2.946,8.144,17.969,17.969,0,0,1-6.671,4.948,20.374,20.374,0,0,1,10.492,4.9A13.981,13.981,0,0,1,49.37-16.29a14.765,14.765,0,0,1-2.793,8.751A19.027,19.027,0,0,1,38.91-1.391,25.62,25.62,0,0,1,28.08.86c-1.686,0-3.637-.091-5.8-.272-.832-.059-1.871-.12-3.089-.179S16.606.32,15.122.32L8.566.41C7.364.47,5.724.5,3.69.5,3.509.5,2.92.425,2.92-.54s.589-1.04.77-1.04a11.715,11.715,0,0,0,3.788-.464A2.769,2.769,0,0,0,9.129-3.58,9.62,9.62,0,0,0,9.67-7.29V-48.96c0-2.367-.372-3.927-1.107-4.635S6.214-54.67,3.78-54.67a.644.644,0,0,1-.609-.477A1.787,1.787,0,0,1,3.1-55.71a1.787,1.787,0,0,1,.071-.563.644.644,0,0,1,.609-.477h.009l4.782.09c2.74.119,4.943.18,6.548.18,1.656,0,3.4-.09,5.17-.268.605-.061,1.522-.122,2.725-.182S25.286-57.02,26.19-57.02ZM28.08-.14A24.629,24.629,0,0,0,38.49-2.3a18.041,18.041,0,0,0,7.273-5.822A13.784,13.784,0,0,0,48.37-16.29,13.54,13.54,0,0,0,47.3-21.716a13.394,13.394,0,0,0-3.223-4.468,17.193,17.193,0,0,0-5.084-3.235,24.8,24.8,0,0,0-6.649-1.675l-.116-.965a18.053,18.053,0,0,0,7.931-5.336A11.72,11.72,0,0,0,42.88-44.91a10.216,10.216,0,0,0-1.068-4.764A9.313,9.313,0,0,0,38.6-53.133c-2.9-1.916-7.08-2.887-12.415-2.887-.887,0-1.939.03-3.125.089s-2.086.119-2.675.178c-1.808.181-3.581.272-5.27.272-1.618,0-3.834-.061-6.586-.18L4.1-55.744q0,.016,0,.034t0,.042c2.56.034,4.248.477,5.157,1.353.951.917,1.413,2.668,1.413,5.355V-7.29a10.377,10.377,0,0,1-.629,4.12A3.771,3.771,0,0,1,7.822-1.106a12,12,0,0,1-3.9.525q0,.019,0,.041t0,.04c1.916,0,3.464-.032,4.6-.089h.018L15.12-.68c1.5,0,2.887.03,4.119.091s2.276.121,3.116.181h.006C24.5-.23,26.422-.14,28.08-.14ZM59.85-56.75h.01l4.6.09c2.74.119,5.034.18,6.818.18s4.078-.06,6.818-.18h.012l4.6-.09c.181,0,.77.075.77,1.04s-.589,1.04-.77,1.04a12.475,12.475,0,0,0-3.968.464,2.334,2.334,0,0,0-1.5,1.494,12.8,12.8,0,0,0-.423,3.842V-7.65a10.91,10.91,0,0,0,.332,3.211,1.668,1.668,0,0,0,1.087,1.087,10.91,10.91,0,0,0,3.211.332h3.06a21.781,21.781,0,0,0,6.4-.912,18.465,18.465,0,0,0,5.455-2.728,17.2,17.2,0,0,0,4.155-4.274,18.421,18.421,0,0,0,2.49-5.552c.036-.195.19-.575.849-.575a1.3,1.3,0,0,1,.662.206.814.814,0,0,1,.468.654l0,.045c-.536,5.9-.808,10.878-.808,14.8a1.9,1.9,0,0,1-.461,1.389A1.9,1.9,0,0,1,102.33.5H59.85a.644.644,0,0,1-.609-.477A1.787,1.787,0,0,1,59.17-.54a1.787,1.787,0,0,1,.071-.563.644.644,0,0,1,.609-.477A13.644,13.644,0,0,0,63.872-2a2.333,2.333,0,0,0,1.5-1.46A11.666,11.666,0,0,0,65.83-7.29V-48.96a11.253,11.253,0,0,0-.46-3.777,2.478,2.478,0,0,0-1.552-1.468,12.475,12.475,0,0,0-3.968-.464.644.644,0,0,1-.609-.477,1.787,1.787,0,0,1-.071-.563,1.787,1.787,0,0,1,.071-.563A.644.644,0,0,1,59.85-56.75Zm22.629,1.081q0-.019,0-.041t0-.035l-4.344.085c-2.752.12-5.058.18-6.856.18s-4.1-.061-6.856-.18l-4.254-.083q0,.016,0,.034t0,.042a12.5,12.5,0,0,1,3.992.524A3.471,3.471,0,0,1,66.3-53.1a11.953,11.953,0,0,1,.53,4.143V-7.29A12.376,12.376,0,0,1,66.3-3.108a3.322,3.322,0,0,1-2.1,2.05,13.511,13.511,0,0,1-4.028.476q0,.02,0,.041t0,.04h42.16a1.024,1.024,0,0,0,.681-.169,1.024,1.024,0,0,0,.169-.681c0-3.906.266-8.839.791-14.667l-.046-.023A18.351,18.351,0,0,1,96.954-5.851,20.662,20.662,0,0,1,84.51-2.02H81.45a11.584,11.584,0,0,1-3.539-.388,2.645,2.645,0,0,1-1.7-1.7A11.583,11.583,0,0,1,75.82-7.65V-48.87a13.492,13.492,0,0,1,.477-4.168,3.321,3.321,0,0,1,2.1-2.106A12.684,12.684,0,0,1,82.479-55.669Zm59.811.359a18.283,18.283,0,0,1,11.466,3.795,23.635,23.635,0,0,1,7.451,10.43A41.539,41.539,0,0,1,163.76-26.1a36.853,36.853,0,0,1-2.286,13.641,19.538,19.538,0,0,1-6.424,8.768A15.512,15.512,0,0,1,145.71-.67,16.479,16.479,0,0,1,134.9-4.656a26.3,26.3,0,0,1-7.436-10.959A43.842,43.842,0,0,1,124.78-31.41a40.531,40.531,0,0,1,1.118-9.968,22.5,22.5,0,0,1,3.385-7.558,14.8,14.8,0,0,1,5.542-4.782A16.853,16.853,0,0,1,142.29-55.31Zm3.42,53.64A14.532,14.532,0,0,0,154.46-4.5a18.56,18.56,0,0,0,6.086-8.332A35.871,35.871,0,0,0,162.76-26.1a40.548,40.548,0,0,0-2.486-14.625,22.653,22.653,0,0,0-7.13-10,16.85,16.85,0,0,0-5.026-2.688,18.539,18.539,0,0,0-5.828-.9,15.866,15.866,0,0,0-7.025,1.49,13.816,13.816,0,0,0-5.168,4.466,21.51,21.51,0,0,0-3.23,7.224,39.539,39.539,0,0,0-1.087,9.72A42.852,42.852,0,0,0,128.4-15.975a25.317,25.317,0,0,0,7.144,10.551,16.3,16.3,0,0,0,4.791,2.817A15.463,15.463,0,0,0,145.71-1.67ZM24.84-55.04A8.532,8.532,0,0,1,31.7-52.208c1.572,1.855,2.369,4.583,2.369,8.108a15.615,15.615,0,0,1-2.614,9.292A8.84,8.84,0,0,1,23.85-31.09h-.013l-4.087-.1V-48.78c0-2.36.361-3.95,1.1-4.861C21.609-54.569,22.951-55.04,24.84-55.04Zm-.984,22.95a8.88,8.88,0,0,0,3.915-.827,7.675,7.675,0,0,0,2.873-2.475A14.646,14.646,0,0,0,33.07-44.1c0-3.282-.717-5.793-2.131-7.462a6.586,6.586,0,0,0-2.553-1.852,9.343,9.343,0,0,0-3.545-.626c-1.574,0-2.655.347-3.212,1.031-.582.715-.878,2.138-.878,4.229v16.612Zm1.074,2.43c4.636,0,8.157,1.424,10.466,4.232,2.285,2.779,3.444,6.58,3.444,11.3,0,4.195-1.039,7.4-3.087,9.527S30.6-1.39,26.55-1.39c-2.808,0-4.6-.448-5.49-1.368s-1.31-2.4-1.31-4.532V-29.438l.457-.04C21.595-29.6,23.184-29.66,24.93-29.66ZM26.55-2.39c3.771,0,6.624-.978,8.482-2.907S37.84-10.2,37.84-14.13c0-4.48-1.082-8.067-3.216-10.662a9.833,9.833,0,0,0-3.985-2.891,15.33,15.33,0,0,0-5.709-.976c-1.528,0-2.932.047-4.18.141V-7.29c0,1.837.347,3.128,1.03,3.838C22.247-2.967,23.453-2.39,26.55-2.39Z" transform="translate(799 2019.5)" fill="#222"/>
  </g>
</svg>
