<svg xmlns="http://www.w3.org/2000/svg" width="255" height="109" viewBox="0 0 255 109">
  <g id="news" transform="translate(-170 -1836)" opacity="0.08">
    <text id="news-2" data-name="news" transform="translate(170 1919)" fill="#222" font-size="90" font-family="CormorantGaramond-Bold, Cormorant Garamond" font-weight="700" letter-spacing="0.04em"><tspan x="0" y="0">NEWS</tspan></text>
    <path id="news_-_Outline" data-name="news - Outline" d="M234.9-57.74a36.579,36.579,0,0,1,6.479.593,27.268,27.268,0,0,1,5.32,1.424l.014.006a2.923,2.923,0,0,1,1.293.945,2.325,2.325,0,0,1,.354,1.312v13.23c0,.24-.1.673-.806.884a1.4,1.4,0,0,1-.4.066.756.756,0,0,1-.747-.5l-.718-1.706a40.153,40.153,0,0,0-5.2-9.512,9.25,9.25,0,0,0-3.426-2.82,10.712,10.712,0,0,0-4.591-.942,8.019,8.019,0,0,0-5.56,1.941,7.263,7.263,0,0,0-2.13,5.659,9.765,9.765,0,0,0,1.582,5.484,18.015,18.015,0,0,0,3.985,4.291c1.6,1.246,3.8,2.782,6.536,4.566a87.208,87.208,0,0,1,7.239,5.068,20.548,20.548,0,0,1,4.7,5.4,14.038,14.038,0,0,1,1.963,7.415,14.84,14.84,0,0,1-2.609,8.609A17.172,17.172,0,0,1,241-.49,24.366,24.366,0,0,1,230.85,1.58,34.87,34.87,0,0,1,222.266.439c-3.037-.775-5.045-1.618-6.138-2.576a3.987,3.987,0,0,1-.76-.767,2.252,2.252,0,0,1-.318-1.321l-.27-14.4a.894.894,0,0,1,.9-.9c.05,0,.1-.007.145-.007a.9.9,0,0,1,.913.64c1.778,3.613,3.355,6.586,4.687,8.836a23.035,23.035,0,0,0,5.021,5.9A10.236,10.236,0,0,0,233.19-1.67a8.565,8.565,0,0,0,5.621-1.82c1.432-1.184,2.159-3.28,2.159-6.23a12.937,12.937,0,0,0-1.685-6.676,18.467,18.467,0,0,0-4.162-4.908,81.343,81.343,0,0,0-6.886-4.918,73.064,73.064,0,0,1-6.751-4.8,19.719,19.719,0,0,1-4.2-4.893A12.869,12.869,0,0,1,215.5-42.75a12.681,12.681,0,0,1,2.861-8.376,16.824,16.824,0,0,1,7.277-5.009A26.949,26.949,0,0,1,234.9-57.74Zm11.414,2.94a26.34,26.34,0,0,0-5.113-1.363,35.58,35.58,0,0,0-6.3-.577,25.952,25.952,0,0,0-8.919,1.545,15.838,15.838,0,0,0-6.853,4.711A11.708,11.708,0,0,0,216.5-42.75a11.887,11.887,0,0,0,1.636,6.309,18.721,18.721,0,0,0,3.988,4.647,72.124,72.124,0,0,0,6.657,4.735,82.332,82.332,0,0,1,6.976,4.984,19.464,19.464,0,0,1,4.388,5.172A13.92,13.92,0,0,1,241.97-9.72c0,3.262-.848,5.617-2.521,7A9.535,9.535,0,0,1,233.19-.67,11.211,11.211,0,0,1,225.8-3.4a24.033,24.033,0,0,1-5.239-6.158c-1.35-2.28-2.946-5.29-4.743-8.944l-.02-.04-.022,0,.27,14.308a1.35,1.35,0,0,0,.132.744,3.1,3.1,0,0,0,.581.575l.018.016c.955.843,2.884,1.639,5.733,2.365A33.874,33.874,0,0,0,230.85.58a23.375,23.375,0,0,0,9.738-1.98,16.187,16.187,0,0,0,6.771-5.5,13.859,13.859,0,0,0,2.431-8.041,13.054,13.054,0,0,0-1.817-6.9A19.552,19.552,0,0,0,243.5-26.97a86.283,86.283,0,0,0-7.157-5.009c-2.762-1.8-4.984-3.354-6.607-4.616a19.012,19.012,0,0,1-4.205-4.529,10.748,10.748,0,0,1-1.748-6.036,8.212,8.212,0,0,1,2.46-6.4,8.987,8.987,0,0,1,6.23-2.2,10.492,10.492,0,0,1,8.813,4.157,41.139,41.139,0,0,1,5.33,9.744l.654,1.554a.847.847,0,0,0,.092-.033V-53.46a1.356,1.356,0,0,0-.186-.758A1.983,1.983,0,0,0,246.314-54.8ZM1.98-56.75h.012l3.806.091c.763.059,1.9.088,3.377.089L16-56.66c.845-.06,1.881-.09,3.081-.09a1.947,1.947,0,0,1,1.434.506,18.968,18.968,0,0,1,1.3,1.579l.006.008c1.007,1.363,1.725,2.29,2.134,2.758L54.22-17V-44.73a12.6,12.6,0,0,0-1.888-7.361A5.838,5.838,0,0,0,47.25-54.67a.644.644,0,0,1-.609-.477,1.787,1.787,0,0,1-.071-.563,1.787,1.787,0,0,1,.071-.563.644.644,0,0,1,.609-.477h.012l3.89.091c1.9.119,3.525.179,4.829.179,1.185,0,2.872-.06,5.012-.179h.017l4.061-.09a.644.644,0,0,1,.609.477,1.787,1.787,0,0,1,.071.563,1.787,1.787,0,0,1-.071.563.644.644,0,0,1-.609.477A6.118,6.118,0,0,0,59.8-52.04a12.2,12.2,0,0,0-1.974,7.31V1.35a.875.875,0,0,1-.8.848,1.641,1.641,0,0,1-.353.042.947.947,0,0,1-.694-.266l-.022-.024L14.63-45.113V-11.43a12.418,12.418,0,0,0,1.888,7.271A5.838,5.838,0,0,0,21.6-1.58a.644.644,0,0,1,.609.477,1.787,1.787,0,0,1,.071.563,1.787,1.787,0,0,1-.071.563A.644.644,0,0,1,21.6.5C19.924.5,18.615.47,17.708.41L12.87.32,7.308.41C6.284.47,4.794.5,2.88.5,2.7.5,2.11.425,2.11-.54s.589-1.04.77-1.04A7.132,7.132,0,0,0,8.749-4.188,11.117,11.117,0,0,0,10.93-11.43V-49.3A22.637,22.637,0,0,0,6.1-53.521,8.2,8.2,0,0,0,1.98-54.67a.644.644,0,0,1-.609-.477A1.787,1.787,0,0,1,1.3-55.71a1.787,1.787,0,0,1,.071-.563A.644.644,0,0,1,1.98-56.75Zm19.041,2.691a18.6,18.6,0,0,0-1.214-1.477,1.011,1.011,0,0,0-.726-.214c-1.183,0-2.2.03-3.024.089h-.029l-6.847.09c-1.5,0-2.657-.03-3.445-.09L2.3-55.742q0,.015,0,.032t0,.046a9.249,9.249,0,0,1,4.294,1.276,24,24,0,0,1,5.2,4.551l.131.143V-11.43A12.077,12.077,0,0,1,9.521-3.552,8.127,8.127,0,0,1,3.111-.582c0,.013,0,.027,0,.042s0,.027,0,.04C4.9-.5,6.3-.532,7.261-.589h.021l5.589-.09,4.893.091c.827.055,2.009.085,3.516.089q0-.019,0-.04t0-.046A6.82,6.82,0,0,1,15.7-3.581,13.375,13.375,0,0,1,13.63-11.43V-47.767L56.672,1.24a.6.6,0,0,0,.145-.018l.013,0V-44.73A13.164,13.164,0,0,1,59-52.63a7.105,7.105,0,0,1,5.753-3.035c0-.014,0-.029,0-.045s0-.022,0-.033l-3.711.082c-2.155.12-3.857.18-5.059.18-1.322,0-2.964-.061-4.881-.18l-3.529-.082q0,.016,0,.032t0,.046a6.82,6.82,0,0,1,5.577,3A13.55,13.55,0,0,1,55.22-44.73v30.41L23.2-51.242C22.771-51.735,22.057-52.657,21.021-54.059ZM73.44-56.75H111.6a1.247,1.247,0,0,1,1.4,1.306l.18,11.974c0,.4-.3.653-.906.762a1.734,1.734,0,0,1-.312.031.825.825,0,0,1-.837-.544l-.008-.025a13.328,13.328,0,0,0-4.675-7.47,14.4,14.4,0,0,0-8.7-2.423h-2.7A5.246,5.246,0,0,0,91.42-52.1a4.242,4.242,0,0,0-1.1,3.234v17.86h6.97c3.366,0,5.97-.579,7.739-1.72a5.166,5.166,0,0,0,2.561-4.62c0-.129.048-.77.995-.77s1,.641,1,.77v.006l-.09,8.092.09,4.3c.12,2.036.18,3.677.18,4.879a.644.644,0,0,1-.477.609,1.787,1.787,0,0,1-.563.071,1.787,1.787,0,0,1-.563-.071.644.644,0,0,1-.477-.609,6.32,6.32,0,0,0-2.634-5.4c-1.793-1.338-4.433-2.016-7.846-2.016H90.32V-7.65A5.8,5.8,0,0,0,91.2-4.089,3.269,3.269,0,0,0,93.96-3.02h2.97c4.556,0,8.246-.94,10.969-2.793a16.145,16.145,0,0,0,6.005-8.619c.042-.2.205-.557.846-.557a1.442,1.442,0,0,1,.752.206.814.814,0,0,1,.468.654v.032l0,.032a101.222,101.222,0,0,0-.9,12.716,2.026,2.026,0,0,1-.39,1.36,1.826,1.826,0,0,1-1.46.49H73.44c-.181,0-.77-.075-.77-1.04s.589-1.04.77-1.04A13.644,13.644,0,0,0,77.462-2a2.2,2.2,0,0,0,1.445-1.445A12.8,12.8,0,0,0,79.33-7.29V-48.96a12.346,12.346,0,0,0-.421-3.792,2.336,2.336,0,0,0-1.5-1.454,12.475,12.475,0,0,0-3.968-.464c-.181,0-.77-.075-.77-1.04S73.259-56.75,73.44-56.75Zm38.736,13.042L112-55.44c0-.18,0-.31-.4-.31H73.671q0,.019,0,.04t0,.041a12.684,12.684,0,0,1,4.082.525,3.324,3.324,0,0,1,2.1,2.056,13.027,13.027,0,0,1,.479,4.128V-7.29a13.492,13.492,0,0,1-.477,4.168,3.188,3.188,0,0,1-2.065,2.065,13.728,13.728,0,0,1-4.117.477q0,.019,0,.041t0,.04H113.22c.573,0,.7-.135.7-.14a1.116,1.116,0,0,0,.15-.71,101.7,101.7,0,0,1,.873-12.6.43.43,0,0,0-.134-.037,17.045,17.045,0,0,1-6.348,9C105.57-3.018,101.69-2.02,96.93-2.02H93.96a4.246,4.246,0,0,1-3.543-1.451,6.718,6.718,0,0,1-1.1-4.179V-28.49H97.2c3.634,0,6.475.745,8.444,2.214a7.3,7.3,0,0,1,3.031,5.885h.084c-.01-1.151-.069-2.666-.178-4.51v-.019l-.09-4.328v-.008l.084-7.6a6.149,6.149,0,0,1-3,4.969c-1.933,1.247-4.72,1.88-8.281,1.88H89.32V-48.87a5.179,5.179,0,0,1,1.42-3.966,6.169,6.169,0,0,1,4.3-1.3h2.7a15.362,15.362,0,0,1,9.3,2.617,14.2,14.2,0,0,1,5,7.84l.061-.009Zm11.3-13.042a13.838,13.838,0,0,1,1.955.094c1.176.117,2.729.176,4.615.176,3.99,0,7.4-.06,10.14-.179.788-.06,1.767-.091,2.91-.091.181,0,.77.075.77,1.04s-.589,1.04-.77,1.04a7.708,7.708,0,0,0-2.98.4,1.139,1.139,0,0,0-.66,1.169c0,.647.351,2.166,2.023,5.728l15.7,33.317,5.175-13.554-9.9-20.957a21.8,21.8,0,0,0-2.808-4.7,3.33,3.33,0,0,0-2.5-1.4c-.181,0-.77-.075-.77-1.04s.589-1.04.77-1.04a20.069,20.069,0,0,1,2.17.138,33.3,33.3,0,0,0,3.41.132c3.389,0,6.253-.06,8.512-.179.612-.061,1.412-.091,2.378-.091.181,0,.77.075.77,1.04s-.589,1.04-.77,1.04a3.531,3.531,0,0,0-1.608.255c-.15.081-.322.232-.322.685,0,.646.413,2.272,2.38,6.353l3.455,7.3L169.364-45a23.707,23.707,0,0,0,1.946-7.56c0-1.87-.935-2.11-1.75-2.11-.181,0-.77-.075-.77-1.04s.589-1.04.77-1.04a10.7,10.7,0,0,1,1.653.141,38.788,38.788,0,0,0,4.2.129c1,0,2.229-.06,3.648-.178l.028,0,3.344-.09a.644.644,0,0,1,.609.477,1.787,1.787,0,0,1,.071.563,1.787,1.787,0,0,1-.071.563.644.644,0,0,1-.609.477,7.014,7.014,0,0,0-5.148,2.5,23.383,23.383,0,0,0-4.373,7.8l-3.256,8.712,10.2,21.511,11.2-29.943A14.61,14.61,0,0,0,192.1-49.14a6.083,6.083,0,0,0-1.274-4.084,4.167,4.167,0,0,0-3.356-1.446c-.181,0-.77-.075-.77-1.04s.589-1.04.77-1.04h.011l4.157.091c2.141.119,4.13.179,5.912.179,1.182,0,2.562-.06,4.1-.179h.027l3.882-.09a.644.644,0,0,1,.609.477,1.787,1.787,0,0,1,.071.563,1.787,1.787,0,0,1-.071.563.644.644,0,0,1-.609.477,8.453,8.453,0,0,0-5.907,2.694,20.785,20.785,0,0,0-4.7,7.6L178.316.064c-.2.706-1.152.706-1.466.706a2.571,2.571,0,0,1-.868-.12.906.906,0,0,1-.589-.559l-11-23.285L155.726.064c-.2.706-1.152.706-1.466.706a2.57,2.57,0,0,1-.868-.12A.906.906,0,0,1,152.8.09L129.868-48.567a32.6,32.6,0,0,0-2.166-4.072,4.466,4.466,0,0,0-1.692-1.585,5.971,5.971,0,0,0-2.529-.446c-.181,0-.77-.075-.77-1.04S123.3-56.75,123.48-56.75Zm19.389,1.081c0-.013,0-.026,0-.041s0-.027,0-.04c-1.023,0-1.9.033-2.611.088h-.017c-2.754.12-6.183.18-10.192.18-1.928,0-3.519-.061-4.73-.182l-.032,0a11.58,11.58,0,0,0-1.577-.082q0,.018,0,.039t0,.042a6.683,6.683,0,0,1,2.73.542,5.437,5.437,0,0,1,2.088,1.925,33.46,33.46,0,0,1,2.244,4.209l22.955,48.7a1.584,1.584,0,0,0,.533.062,1.591,1.591,0,0,0,.532-.062l9.494-25.474L176.317-.292a1.584,1.584,0,0,0,.533.062,1.591,1.591,0,0,0,.532-.062l16.64-44.433a21.769,21.769,0,0,1,4.935-7.969,9.523,9.523,0,0,1,6.283-2.97q0-.022,0-.046t0-.032l-3.525.082c-1.56.12-2.961.18-4.165.18-1.8,0-3.8-.061-5.959-.18l-3.89-.085q0,.016,0,.035c0,.016,0,.03,0,.044a5.13,5.13,0,0,1,3.883,1.79A7.042,7.042,0,0,1,193.1-49.14a15.59,15.59,0,0,1-1.112,5.4L179.965-11.588l-11.4-24.029,3.4-9.108a24.335,24.335,0,0,1,4.582-8.133,8.063,8.063,0,0,1,5.556-2.805q0-.022,0-.047t0-.031l-2.982.081c-1.441.12-2.692.181-3.718.181a38.259,38.259,0,0,1-4.353-.141,10.2,10.2,0,0,0-1.267-.125q0,.017,0,.036c0,.017,0,.032,0,.046a2.5,2.5,0,0,1,1.836.82,3.415,3.415,0,0,1,.684,2.284c0,1.819-.658,4.409-2.013,7.919l-2.662,7.135-4.466-9.44c-1.667-3.457-2.478-5.677-2.478-6.784a1.642,1.642,0,0,1,.848-1.565,4.167,4.167,0,0,1,1.851-.372c0-.013,0-.027,0-.043s0-.027,0-.039c-.835,0-1.527.034-2.06.087l-.023,0c-2.278.12-5.164.181-8.576.181a34.2,34.2,0,0,1-3.52-.138c-.686-.076-1.3-.12-1.829-.13q0,.018,0,.038c0,.017,0,.033,0,.048a4.424,4.424,0,0,1,3.029,1.742,22.729,22.729,0,0,1,2.952,4.927l10.081,21.343-.076.2L157.278-11.5l-16.7-35.442C139.153-49.983,138.46-52,138.46-53.1a2.124,2.124,0,0,1,1.23-2.071A7.993,7.993,0,0,1,142.869-55.669Z" transform="translate(170 1919)" fill="#222"/>
  </g>
</svg>
